<?xml version="1.0" standalone="no"?>
<!DOCTYPE svg PUBLIC "-//W3C//DTD SVG 20010904//EN"
 "http://www.w3.org/TR/2001/REC-SVG-20010904/DTD/svg10.dtd">
<svg version="1.0" xmlns="http://www.w3.org/2000/svg"
 width="260.000000pt" height="260.000000pt" viewBox="0 0 260.000000 260.000000"
 preserveAspectRatio="xMidYMid meet">
<metadata>
Created by potrace 1.11, written by Peter Selinger 2001-2013
</metadata>
<g transform="translate(0.000000,260.000000) scale(0.100000,-0.100000)"
fill="#000000" stroke="none">
<path d="M0 2256 l0 -344 66 -11 c36 -7 90 -21 120 -32 l55 -21 90 32 c49 18
89 35 89 38 0 2 -8 11 -17 18 -10 7 -16 15 -13 18 10 9 134 25 254 32 l119 7
-6 -44 c-10 -73 30 -324 62 -394 38 -83 112 -167 222 -256 290 -233 551 -369
709 -369 60 0 325 65 368 90 l33 20 13 -33 c26 -62 29 -80 15 -72 -8 5 -21 14
-29 21 -13 11 -15 -9 -16 -174 -1 -112 -7 -224 -16 -278 l-14 -91 52 -87 c48
-79 85 -171 114 -283 l11 -43 159 0 160 0 0 1300 0 1300 -1300 0 -1300 0 0
-344z m1698 84 c22 -8 31 -17 28 -27 -3 -8 -58 -90 -123 -184 -109 -158 -120
-171 -169 -193 -103 -47 -174 -156 -174 -266 0 -28 -3 -50 -6 -50 -12 0 -137
126 -180 182 -54 70 -94 152 -94 195 0 24 15 50 59 106 98 123 216 206 344
242 62 18 264 14 315 -5z m279 -72 c58 -37 83 -71 83 -114 0 -15 -219 -344
-229 -344 -3 1 -22 21 -41 46 -35 45 -133 104 -172 104 -10 0 -18 4 -18 10 0
5 48 80 106 166 140 204 150 210 271 132z m-1177 -208 c0 -5 -7 -10 -15 -10
-8 0 -15 5 -15 10 0 6 7 10 15 10 8 0 15 -4 15 -10z m1394 -110 c45 -85 66
-170 66 -266 0 -94 -16 -163 -59 -264 -46 -108 -91 -167 -140 -180 -73 -19
-199 11 -357 85 l-79 37 52 24 c104 47 172 142 181 254 5 64 6 67 130 248
l126 182 23 -27 c12 -16 38 -57 57 -93z m-1264 -67 c110 -249 605 -619 948
-708 72 -19 192 -19 237 -1 44 19 47 2 9 -44 -37 -43 -63 -54 -211 -89 -149
-35 -164 -36 -252 -16 -166 39 -515 265 -684 443 -76 80 -103 143 -123 278
-25 177 -21 226 25 278 15 17 16 15 23 -38 4 -31 16 -77 28 -103z m730 -23
c111 -57 151 -185 94 -299 -80 -159 -309 -158 -388 1 -97 194 103 395 294 298z"/>
<path d="M1252 2258 c-7 -7 -12 -32 -12 -56 0 -53 -3 -59 -97 -198 -57 -85
-74 -117 -68 -133 4 -15 15 -21 34 -21 25 0 39 15 117 131 85 126 88 134 92
195 5 67 -6 94 -37 94 -9 0 -22 -5 -29 -12z"/>
<path d="M2145 1638 c-56 -20 -84 -49 -170 -174 -94 -136 -104 -169 -50 -169
26 0 37 11 92 90 99 140 112 155 159 176 48 20 63 42 47 68 -13 20 -39 23 -78
9z"/>
<path d="M1608 1799 c-24 -13 -23 -42 1 -63 32 -29 40 -67 25 -112 -12 -35
-12 -41 4 -57 38 -37 82 16 82 98 0 53 -19 95 -56 124 -30 24 -32 24 -56 10z"/>
<path d="M505 1538 c-51 -27 -60 -84 -20 -123 38 -39 102 -27 124 22 17 37 14
52 -18 84 -31 31 -53 35 -86 17z"/>
<path d="M283 1215 c-3 -9 9 -44 26 -78 150 -295 628 -687 993 -816 117 -41
183 -49 192 -25 9 24 0 30 -74 49 -195 49 -433 179 -655 358 -170 137 -375
376 -424 495 -14 34 -47 44 -58 17z"/>
<path d="M1633 670 c-49 -20 -59 -96 -17 -129 54 -43 124 -10 124 57 0 30 -28
72 -49 72 -5 0 -15 2 -23 4 -7 3 -23 1 -35 -4z"/>
</g>
</svg>
